<svg xmlns="http://www.w3.org/2000/svg" fill="none" viewBox="0 0 24 24" id="Looker--Streamline-Svg-Logos" height="24" width="24">
  <desc>
    Looker Streamline Icon: https://streamlinehq.com
  </desc>
  <path fill="#34a853" d="M2.17293 8.878675c-0.2016325 0.000075 -0.386795 0.1113 -0.4815625 0.289275s-0.083705 0.3937 0.0287725 0.56105l0.233135 -0.2328c-0.007705 -0.023225 -0.01159 -0.04755 -0.0115075 -0.072025 0 -0.127125 0.1030525 -0.230175 0.2301775 -0.230175 0.1271225 0 0.230175 0.10305 0.230175 0.230175s-0.1030525 0.230175 -0.230175 0.230175c-0.02436 0.000075 -0.0485675 -0.003825 -0.071685 -0.0115l-0.2328075 0.2328c0.1938725 0.1315 0.45005 0.124525 0.6364975 -0.0173 0.186425 -0.141825 0.2615 -0.38685 0.186525 -0.608775 -0.074975 -0.22195 -0.2832875 -0.371225 -0.517545 -0.3709Z" stroke-width="0.25"></path>
  <path fill="#fbbc04" d="M1.9558975 10.468525c0.0003575 -0.1843 -0.05932 -0.363675 -0.1700025 -0.511l-0.3025175 0.302175c0.0946075 0.17305 0.06056 0.388125 -0.082865 0.5235l0.1644125 0.401825c0.2436025 -0.1569 0.39086 -0.42675 0.3909725 -0.7165Z" stroke-width="0.25"></path>
  <path fill="#ea4335" d="M1.1105 10.9023h-0.0078925c-0.185555 0 -0.3506 -0.117925 -0.4106925 -0.293475 -0.0600925 -0.175575 -0.0019425 -0.3699 0.1446975 -0.4836 0.1466425 -0.1137 0.3493425 -0.1216 0.5043925 -0.019675l0.29956 -0.29955c-0.291285 -0.23615 -0.702635 -0.254375 -1.013655 -0.0449 -0.31102 0.209475 -0.44875425 0.5975 -0.3394075 0.9562 0.109345 0.358675 0.4401225 0.6039 0.815105 0.60425 0.05786 0.000025 0.11558 -0.0057 0.172305 -0.0171L1.1105 10.9023Z" stroke-width="0.25"></path>
  <path fill="#4285f4" d="M2.1843825 11.24985c-0.189335 -0.0002 -0.377675 0.027375 -0.5590025 0.081875l0.239715 0.585625c0.104345 -0.02585 0.2114575 -0.038875 0.31896 -0.0388 0.62292 0.000175 1.15897 0.44035 1.280345 1.0513 0.1214 0.610975 -0.2057 1.222625 -0.781225 1.4609 -0.575535 0.2383 -1.2392475 0.036875 -1.5852725 -0.4811 -0.3460225 -0.51795 -0.277995 -1.208225 0.1624825 -1.648675 0.0919125 -0.091625 0.1968425 -0.169175 0.3113975 -0.230175l-0.2370825 -0.584c-0.883735 0.4328 -1.30215425 1.45975 -0.9725375 2.386925 0.329615 0.927175 1.3023725 1.45955 2.2609875 1.237375 0.958625 -0.22215 1.59805 -1.128125 1.486225 -2.1058 -0.111825 -0.97765 -0.939325 -1.715825 -1.9233475 -1.7158l-0.001645 0.00035Z" stroke-width="0.25"></path>
  <path fill="#5f6368" d="M11.008325 11.16365c0.24565 0.146 0.4466 0.3565 0.58105 0.60865 0.139975 0.2616 0.211575 0.554325 0.20815 0.851 0.003425 0.296675 -0.068175 0.5894 -0.20815 0.851 -0.13435 0.252125 -0.335175 0.462625 -0.5807 0.60865 -0.519175 0.298425 -1.15785 0.298425 -1.677025 0l-0.000325 -0.0013c-0.245675 -0.14585 -0.44655 -0.3564 -0.5807 -0.60865 -0.140125 -0.26155 -0.211725 -0.554325 -0.20815 -0.851 -0.00335 -0.29625 0.06825 -0.58855 0.20815 -0.8497 0.13415 -0.25225 0.335025 -0.4628 0.5807 -0.60865 0.519175 -0.2984 1.157825 -0.2984 1.677 0Zm3.5375 0c0.245725 0.1459 0.4467 0.356425 0.581025 0.60865 0.14 0.2616 0.2116 0.554325 0.20815 0.851 0.00345 0.296675 -0.06815 0.5894 -0.20815 0.851 -0.134225 0.2522 -0.3351 0.462725 -0.5807 0.60865 -0.519175 0.298425 -1.157825 0.298425 -1.677 0l-0.000325 -0.0013c-0.245525 -0.14605 -0.44635 -0.35655 -0.5807 -0.60865 -0.139975 -0.2616 -0.211575 -0.554325 -0.20815 -0.851 -0.0032 -0.296225 0.068375 -0.588475 0.20815 -0.8497 0.13435 -0.2521 0.335175 -0.4626 0.5807 -0.60865 0.519175 -0.2984 1.157825 -0.2984 1.677 0Zm5.462775 -0.225575c0.3104 0 0.5796 0.0694 0.807575 0.20815 0.2268 0.137275 0.4094 0.336775 0.526125 0.5748 0.125825 0.261975 0.188225 0.5499 0.182175 0.840475 -0.000225 0.05405 -0.0044 0.108 -0.0125 0.16145H19.0014c0.0125 0.241125 0.070475 0.444125 0.17395 0.608975 0.0953 0.157675 0.2317 0.28645 0.394575 0.37255 0.154125 0.08155 0.3258 0.124225 0.50015 0.1243 0.413875 0 0.726475 -0.1905 0.9378 -0.5715l0.4472 0.21735c-0.127525 0.247175 -0.31825 0.45615 -0.55275 0.6057 -0.236075 0.1493 -0.51975 0.223925 -0.851 0.223925 -0.286075 0.00475 -0.56785 -0.070175 -0.813825 -0.21635 -0.2393 -0.143925 -0.43395 -0.35145 -0.5623 -0.59945 -0.137275 -0.266025 -0.206525 -0.5619 -0.201575 -0.8612 -0.00225 -0.29115 0.0628 -0.5789 0.190075 -0.8408 0.12005 -0.251675 0.306925 -0.4655 0.54025 -0.6182 0.239475 -0.154775 0.51955 -0.2349 0.80465 -0.230175Zm-13.46965 -1.25905v4.108h2.003525v0.517225H5.99475V9.679025h0.5442Zm9.7309 0v2.9239l1.63755 -1.663525h0.690525v0.02565l-1.38105 1.39455 1.318575 1.920325v0.024325h-0.652375l-1.04995 -1.568475 -0.563275 0.564575v1.0039h-0.543875V9.679025h0.543875Zm7.4801 1.330075v0.58235c-0.143325 -0.0697 -0.301 -0.10485 -0.46035 -0.102575 -0.1555 -0.00075 -0.3075 0.0463 -0.435375 0.1348 -0.1343 0.0921 -0.243325 0.216475 -0.316975 0.361725 -0.078825 0.15155 -0.119475 0.320075 -0.118375 0.490925v1.827925h-0.543225V10.94005h0.518225v0.624775h0.02565c0.064025 -0.179325 0.187775 -0.328725 0.37125 -0.4482 0.169975 -0.11475 0.370025 -0.17675 0.5751 -0.1782 0.13155 -0.00335 0.26235 0.020725 0.384075 0.070675Zm-13.580125 0.40775c-0.3977 -0.00155 -0.76405 0.2156 -0.953575 0.56525 -0.104775 0.1967 -0.1571 0.417075 -0.151925 0.6399 -0.005225 0.2228 0.0471 0.4432 0.151925 0.639875 0.140125 0.25705 0.3782 0.446575 0.6601 0.525525 0.281925 0.078925 0.583775 0.040625 0.837025 -0.106275h-0.000975c0.17085 -0.099925 0.3109 -0.244975 0.404775 -0.41925 0.105075 -0.1966 0.157525 -0.417025 0.15225 -0.639875 0.005225 -0.22285 -0.047225 -0.443275 -0.15225 -0.6399 -0.093625 -0.174125 -0.2333 -0.31915 -0.4038 -0.41925 -0.1648 -0.09655 -0.35255 -0.146975 -0.54355 -0.146Zm3.536525 0c-0.192 -0.0007 -0.38075 0.0497 -0.54685 0.146 -0.171775 0.0994 -0.3126 0.244525 -0.40675 0.41925 -0.105025 0.196625 -0.157475 0.41705 -0.15225 0.6399 -0.005275 0.22285 0.047175 0.443275 0.15225 0.639875 0.09415 0.174725 0.234975 0.319875 0.40675 0.41925 0.1661 0.096325 0.35485 0.1467 0.54685 0.146025 0.191425 0.0012 0.379675 -0.049225 0.54485 -0.146025h-0.0013c0.1704 -0.100175 0.310075 -0.245175 0.403775 -0.41925 0.104925 -0.19665 0.157375 -0.41705 0.15225 -0.639875 0.005075 -0.22285 -0.04735 -0.443225 -0.15225 -0.6399 -0.0937 -0.17405 -0.233375 -0.319075 -0.403775 -0.41925 -0.164825 -0.09655 -0.35255 -0.146975 -0.54355 -0.146Zm5.668925 0.23905c-0.17385 0.1596 -0.287725 0.369825 -0.34165 0.6307h1.93185c-0.01005 -0.1387 -0.048075 -0.27395 -0.1118 -0.39755 -0.071325 -0.137875 -0.178725 -0.253775 -0.31075 -0.3354 -0.140725 -0.0912 -0.318725 -0.1368 -0.534 -0.1368 -0.2342 -0.005325 -0.46135 0.08035 -0.63365 0.23905Z" stroke-width="0.25"></path>
</svg>