<svg xmlns="http://www.w3.org/2000/svg" fill="none" viewBox="0 0 24 24" id="Qlik--Streamline-Svg-Logos" height="24" width="24">
  <desc>
    Qlik Streamline Icon: https://streamlinehq.com
  </desc>
  <path fill="#54565b" d="M14.017725 12.2022c-0.103925 -0.169625 0.033 -0.311925 0.033 -0.311925l1.203775 -1.24215c0.13675 -0.1423 -0.060175 -0.1423 -0.060175 -0.1423h-1.1218c-0.19695 0 -0.333725 0.1423 -0.333725 0.1423l-1.1109 1.181975c-0.136775 0.1423 -0.136775 -0.0548 -0.136775 -0.0548V9.19245c0 -0.196925 -0.19695 -0.196925 -0.19695 -0.196925h-0.84825c-0.191575 0 -0.191575 0.191575 -0.191575 0.191575v5.40085c0 0.1971 0.1971 0.1971 0.1971 0.1971h0.842725c0.191425 0 0.191425 -0.191575 0.191425 -0.191575v-0.94665c0 -0.19695 0.1423 -0.333875 0.1423 -0.333875l0.3994 -0.3721 0.99595 1.674575c0.09855 0.169625 0.295475 0.169625 0.295475 0.169625h1.067175c0.196925 0 0.093 -0.169625 0.093 -0.169625l-1.461175 -2.413225Zm-3.6497 2.38575V10.6974c0 -0.1971 -0.19695 -0.1971 -0.19695 -0.1971h-0.853625c-0.19695 0 -0.19695 0.1971 -0.19695 0.1971v3.89055c0 0.1971 0.19695 0.1971 0.19695 0.1971h0.853625c0.19695 0 0.19695 -0.1971 0.19695 -0.1971Zm-0.03285 -4.84825v-0.55815s0 -0.19155 -0.191575 -0.19155H9.31175s-0.1914 0 -0.1914 0.19155v0.55815s0 0.191575 0.1914 0.191575h0.837225s0.1862 0 0.1862 -0.191575Zm-2.1288 4.84825V9.197975c0 -0.196925 -0.196925 -0.196925 -0.196925 -0.196925h-0.870075c-0.196925 0 -0.196925 0.196925 -0.196925 0.196925v5.389975c0 0.1971 0.196925 0.1971 0.196925 0.1971h0.870075c0.196925 0 0.196925 -0.1971 0.196925 -0.1971Zm-1.953475 -0.22965s0.10945 -0.125875 -0.016425 -0.2353l-0.6949 -0.607425c0.3119 -0.465125 0.49795 -1.017725 0.49795 -1.619775 0 -1.5978 -1.29695 -2.8946 -2.89475 -2.8946C1.546795 9.00105 0.25 10.29785 0.25 11.89565c0 1.597975 1.29695 2.894775 2.894775 2.894775 0.58545 0 1.127175 -0.175 1.5869 -0.476025l0.766 0.662075s0.12585 0.10945 0.2353 -0.016425l0.519925 -0.60175Zm-1.4391 -2.467875c0 0.924725 -0.7497 1.674425 -1.67455 1.674425 -0.924715 0 -1.674425 -0.7497 -1.674425 -1.674425 0 -0.92485 0.74971 -1.6744 1.674425 -1.6744 0.92485 0.005375 1.67455 0.74955 1.67455 1.6744Z" stroke-width="0.25"></path>
  <path fill="#009848" d="m23.6762 14.4183 -0.93025 -0.782425c0.322825 -0.514375 0.51425 -1.1218 0.51425 -1.77295 0 -1.8333 -1.488375 -3.321675 -3.3215 -3.321675 -1.83315 0 -3.3215 1.488375 -3.3215 3.321675 0 1.833125 1.48835 3.3215 3.3215 3.3215 0.711325 0 1.37355 -0.224425 1.91525 -0.607425l0.9904 0.83185s0.147825 0.125875 0.2737 -0.02195l0.591 -0.70045c-0.005525 0 0.1148 -0.14765 -0.03285 -0.26815Zm-1.696375 -2.555375c0 1.127175 -0.9138 2.040975 -2.041125 2.040975 -1.127175 0 -2.04115 -0.9138 -2.04115 -2.040975 0 -1.127325 0.913975 -2.04115 2.04115 -2.04115 1.127325 0 2.041125 0.913825 2.041125 2.04115Z" stroke-width="0.25"></path>
  <path fill="#54565b" d="M18.62525 11.8629c0 -0.7223 0.58555 -1.30785 1.30785 -1.30785 0.7223 0 1.30785 0.58555 1.30785 1.30785 0 0.7223 -0.58555 1.30785 -1.30785 1.30785 -0.7223 0 -1.30785 -0.58555 -1.30785 -1.30785Z" stroke-width="0.25"></path>
</svg>